<svg width="25" height="25" viewBox="0 0 25 25" fill="none" xmlns="http://www.w3.org/2000/svg">
<path d="M24.4281 13.0446C24.4281 12.0466 24.3471 11.3183 24.1718 10.563H12.775V15.0677H19.4647C19.3299 16.1872 18.6015 17.8731 16.983 19.006L16.9603 19.1568L20.5638 21.9483L20.8134 21.9732C23.1062 19.8557 24.4281 16.7401 24.4281 13.0446Z" fill="#4285F4"/>
<path d="M12.775 24.9135C16.0523 24.9135 18.8037 23.8344 20.8134 21.9733L16.983 19.006C15.958 19.7208 14.5822 20.2198 12.775 20.2198C9.56502 20.2198 6.8406 18.1024 5.86942 15.1757L5.72707 15.1877L1.98015 18.0875L1.93115 18.2237C3.92725 22.189 8.0274 24.9135 12.775 24.9135Z" fill="#34A853"/>
<path d="M5.86937 15.1757C5.61312 14.4204 5.46482 13.6111 5.46482 12.7749C5.46482 11.9387 5.61312 11.1295 5.85589 10.3742L5.8491 10.2133L2.05523 7.26697L1.9311 7.32601C1.10841 8.97148 0.636353 10.8193 0.636353 12.7749C0.636353 14.7306 1.10841 16.5783 1.9311 18.2238L5.86937 15.1757Z" fill="#FBBC05"/>
<path d="M12.775 5.3299C15.0543 5.3299 16.5918 6.31447 17.4685 7.13725L20.8943 3.79238C18.7903 1.83673 16.0523 0.636353 12.775 0.636353C8.0274 0.636353 3.92725 3.36077 1.93115 7.326L5.85594 10.3742C6.8406 7.44744 9.56502 5.3299 12.775 5.3299Z" fill="#EB4335"/>
</svg>
